<svg xmlns="http://www.w3.org/2000/svg" width="53" height="44" fill="none"><path fill="#73BBDD" d="M52.354 16.782h-5.171v-4.524c0-1.073-.866-1.94-1.94-1.94h-.645V8.963a3.232 3.232 0 0 0 2.585-3.168c0-1.55-2.25-4.886-2.702-5.532-.245-.35-.827-.35-1.06 0-.452.646-2.702 3.981-2.702 5.532a3.232 3.232 0 0 0 2.586 3.168v1.357h-.647a1.936 1.936 0 0 0-1.939 1.939v4.524h-5.17v-4.524c0-1.073-.866-1.94-1.94-1.94h-.646V8.963a3.232 3.232 0 0 0 2.586-3.168c0-1.55-2.25-4.886-2.702-5.532-.245-.35-.827-.35-1.06 0-.452.646-2.702 3.981-2.702 5.532a3.232 3.232 0 0 0 2.586 3.168v1.357h-.647a1.936 1.936 0 0 0-1.939 1.939v4.524h-5.17v-4.524c0-1.073-.866-1.94-1.94-1.94h-.646V8.963a3.232 3.232 0 0 0 2.586-3.168c0-1.55-2.25-4.886-2.702-5.532-.246-.35-.827-.35-1.06 0-.452.646-2.702 3.981-2.702 5.532a3.232 3.232 0 0 0 2.586 3.168v1.357h-.647a1.936 1.936 0 0 0-1.939 1.939v4.524h-5.17v-4.524c0-1.073-.867-1.94-1.94-1.94h-.646V8.963a3.232 3.232 0 0 0 2.585-3.168c0-1.55-2.249-4.886-2.701-5.532-.246-.35-.828-.35-1.06 0-.453.646-2.702 3.981-2.702 5.532a3.232 3.232 0 0 0 2.585 3.168v1.357h-.646a1.936 1.936 0 0 0-1.939 1.939v4.524H.647A.64.64 0 0 0 0 17.43v23.268a3.233 3.233 0 0 0 3.232 3.232h46.536A3.233 3.233 0 0 0 53 40.697V17.429a.648.648 0 0 0-.646-.647Zm-.711 1.293c-.324 2.185-2.185 3.878-4.46 3.878s-4.137-1.693-4.46-3.878h8.92Zm-9.63-12.28c0-.712 1.008-2.547 1.938-4.008.931 1.448 1.94 3.296 1.94 4.007a1.936 1.936 0 0 1-1.94 1.94 1.936 1.936 0 0 1-1.939-1.94Zm0 6.463a.64.64 0 0 1 .645-.646h2.586a.64.64 0 0 1 .646.646v4.524h-3.878v-4.524Zm-.712 5.817c-.323 2.185-2.184 3.878-4.46 3.878-2.275 0-4.136-1.693-4.46-3.878h8.921ZM30.378 5.795c0-.712 1.008-2.547 1.94-4.008.93 1.448 1.938 3.296 1.938 4.007a1.936 1.936 0 0 1-1.939 1.94 1.936 1.936 0 0 1-1.939-1.94Zm0 6.463a.64.64 0 0 1 .646-.646h2.586a.64.64 0 0 1 .646.646v4.524h-3.878v-4.524Zm-.646 5.817h1.228c-.323 2.185-2.185 3.878-4.46 3.878s-4.137-1.693-4.46-3.878h7.692ZM18.744 5.795c0-.712 1.008-2.547 1.939-4.008.93 1.448 1.939 3.296 1.939 4.007a1.936 1.936 0 0 1-1.94 1.94 1.936 1.936 0 0 1-1.938-1.94Zm0 6.463a.64.64 0 0 1 .646-.646h2.586a.64.64 0 0 1 .646.646v4.524h-3.878v-4.524Zm-.646 5.817h2.52c-.323 2.185-2.184 3.878-4.46 3.878-2.275 0-4.136-1.693-4.46-3.878h6.4ZM7.11 5.795c0-.712 1.008-2.547 1.939-4.008.93 1.448 1.939 3.296 1.939 4.007a1.936 1.936 0 0 1-1.94 1.94 1.936 1.936 0 0 1-1.938-1.94Zm0 6.463a.64.64 0 0 1 .646-.646h2.585a.64.64 0 0 1 .647.646v4.524H7.11v-4.524Zm-.647 5.817h3.814c-.323 2.185-2.185 3.878-4.46 3.878s-4.137-1.693-4.46-3.878h5.106Zm45.244 22.622a1.936 1.936 0 0 1-1.939 1.939H3.232a1.936 1.936 0 0 1-1.94-1.94v-7.109h50.415v7.11Zm0-8.403H1.293V21.035c1.073 1.332 2.688 2.21 4.524 2.21 2.262 0 4.214-1.318 5.17-3.205.957 1.9 2.91 3.206 5.171 3.206 2.263 0 4.215-1.319 5.171-3.206.957 1.9 2.909 3.206 5.171 3.206 2.262 0 4.214-1.319 5.17-3.206.957 1.9 2.91 3.206 5.172 3.206 2.262 0 4.214-1.319 5.17-3.206.957 1.9 2.909 3.206 5.17 3.206 1.837 0 3.452-.866 4.525-2.21v11.258Z"/></svg>