<svg xmlns="http://www.w3.org/2000/svg" width="52" height="47" fill="none"><path fill="#73BBDD" d="M.63 31.669h9.513v14.587c0 .355.279.634.634.634s.634-.28.634-.634V31.669h9.513a.661.661 0 0 0 .52-.266.654.654 0 0 0 .089-.571L11.386.39c-.178-.52-1.028-.52-1.205 0L.033 30.832a.616.616 0 0 0 .09.57.589.589 0 0 0 .507.267ZM10.777 2.597 20.049 30.4H11.41v-4.096l3.526-2.347a.632.632 0 0 0 .178-.875.637.637 0 0 0-.875-.178l-2.816 1.878v-5.163a.628.628 0 0 0-.634-.634.628.628 0 0 0-.635.634v5.163L7.34 22.904a.632.632 0 0 0-.697 1.053l3.526 2.347V30.4H1.505l9.272-27.804ZM22.192 36.743a.628.628 0 0 0-.634.634c0 .355.28.634.634.634h1.903v2.537h-3.17a.628.628 0 0 0-.635.634c0 .355.279.634.634.634h3.171v4.44c0 .355.28.634.634.634a.628.628 0 0 0 .634-.634v-4.44h21.563v4.44c0 .355.28.634.635.634a.628.628 0 0 0 .634-.634v-4.44h3.17a.628.628 0 0 0 .635-.634.628.628 0 0 0-.634-.634h-3.171V38.01h1.902a.628.628 0 0 0 .635-.634.628.628 0 0 0-.635-.634h-1.902v-1.269h1.902c.355 0 .635-.279.635-.634a.628.628 0 0 0-.635-.634h-1.902v-.634a.628.628 0 0 0-.634-.635.628.628 0 0 0-.635.635v.634H25.363v-.634a.628.628 0 0 0-.634-.635.628.628 0 0 0-.634.635v.634h-1.902a.628.628 0 0 0-.635.634c0 .355.28.634.634.634h1.903v1.269h-1.902Zm3.171-1.269h21.563v1.269H25.363v-1.269Zm0 2.537h21.563v2.537H25.363V38.01Z"/></svg>