<svg xmlns="http://www.w3.org/2000/svg" width="50" height="43" fill="none"><path fill="#73BBDD" d="M48.151 12.19h-36.57a.604.604 0 0 0-.61.61c0 .621.037 1.23.098 1.828H2.438A2.445 2.445 0 0 0 0 17.066a2.445 2.445 0 0 0 2.438 2.438h9.789c1.828 4.791 5.522 8.655 10.215 10.667l-7.704 11.544a.607.607 0 0 0 .17.84.56.56 0 0 0 .342.098c.195 0 .39-.097.512-.268l7.863-11.788a18.673 18.673 0 0 0 6.253 1.085c2.194 0 4.291-.39 6.254-1.085l7.862 11.788a.62.62 0 0 0 .512.268.69.69 0 0 0 .342-.097.607.607 0 0 0 .17-.841L37.314 30.17c6.741-2.89 11.471-9.582 11.471-17.371a.64.64 0 0 0-.634-.61ZM2.438 18.285c-.67 0-1.219-.548-1.219-1.219 0-.67.549-1.219 1.219-1.219h8.801c.134.83.305 1.646.549 2.438h-9.35Zm27.428 12.19c-9.545 0-17.347-7.606-17.664-17.066H47.53c-.317 9.46-8.118 17.066-17.663 17.066ZM49.37 9.752H10.362a.604.604 0 0 0-.61.61c0 .34.268.61.61.61H49.37c.341 0 .61-.27.61-.61a.604.604 0 0 0-.61-.61ZM19.504 5.486V.61a.604.604 0 0 0-.61-.61.604.604 0 0 0-.609.61v4.876c0 .34.268.61.61.61.341 0 .61-.27.61-.61ZM26.818 5.486V.61a.604.604 0 0 0-.61-.61.604.604 0 0 0-.609.61v4.876c0 .34.268.61.61.61.341 0 .61-.27.61-.61ZM34.132 5.486V.61a.604.604 0 0 0-.61-.61.604.604 0 0 0-.609.61v4.876c0 .34.269.61.61.61.341 0 .61-.27.61-.61ZM41.447 5.486V.61a.604.604 0 0 0-.61-.61.604.604 0 0 0-.61.61v4.876c0 .34.269.61.61.61.341 0 .61-.27.61-.61Z"/></svg>